<svg width="19" height="19" viewBox="0 0 19 19" fill="none" xmlns="http://www.w3.org/2000/svg">
<path d="M17.8098 12.8525L13.4188 10.9706C13.1895 10.8719 12.9392 10.8322 12.6907 10.855C12.4421 10.8779 12.2032 10.9626 11.9958 11.1014L9.64801 12.6664C8.21311 11.9685 7.05176 10.8123 6.34753 9.38046L6.34771 9.38028L7.90722 6.99734C8.04297 6.79047 8.12533 6.55318 8.14693 6.30669C8.16853 6.0602 8.1287 5.8122 8.031 5.58487L6.1474 1.19006C6.01918 0.891744 5.79778 0.642983 5.51635 0.481026C5.23492 0.319068 4.9086 0.25263 4.58624 0.291657C3.31956 0.454521 2.15548 1.07296 1.31148 2.03144C0.467486 2.98992 0.00129462 4.22289 0 5.5C0 12.944 6.05603 19 13.5 19C14.7771 18.9987 16.0101 18.5325 16.9686 17.6885C17.9271 16.8445 18.5455 15.6804 18.7083 14.4137C18.7473 14.0913 18.6808 13.765 18.5188 13.4836C18.3568 13.2022 18.1081 12.9808 17.8098 12.8525Z" fill="#ADADAD"/>
</svg>
