<svg width="24" height="42" viewBox="0 0 24 42" fill="none" xmlns="http://www.w3.org/2000/svg">
<path d="M6 12H18" stroke="#333333" stroke-width="1.5" stroke-linecap="round" stroke-linejoin="round"/>
<path d="M2.25 7.5H21.75" stroke="#333333" stroke-width="1.5" stroke-linecap="round" stroke-linejoin="round"/>
<path d="M9.75 16.5H14.25" stroke="#333333" stroke-width="1.5" stroke-linecap="round" stroke-linejoin="round"/>
<path d="M8.66 36.716H4.352V29.456H2.9V38H8.66V36.716ZM12.3374 38.18C14.1494 38.18 15.4214 36.8 15.4214 34.892C15.4214 32.972 14.1614 31.652 12.3614 31.652C10.5374 31.652 9.26544 32.984 9.26544 34.916C9.26544 36.824 10.5254 38.18 12.3374 38.18ZM12.3374 37.052C11.2934 37.052 10.6454 36.212 10.6454 34.916C10.6454 33.62 11.2814 32.78 12.3374 32.78C13.4174 32.78 14.0534 33.596 14.0534 34.892C14.0534 36.188 13.4174 37.052 12.3374 37.052ZM11.6414 38.984V40.352H13.0454V38.984H11.6414ZM19.3184 38.18C20.8784 38.18 21.8504 37.316 22.0904 35.852H20.7344C20.5664 36.62 20.1104 37.052 19.3544 37.052C18.3464 37.052 17.7704 36.272 17.7704 34.916C17.7704 33.56 18.3104 32.78 19.3664 32.78C20.0984 32.78 20.5544 33.152 20.7344 33.908H22.0904C21.8624 32.456 20.8544 31.652 19.3424 31.652C17.5304 31.652 16.3904 32.9 16.3904 34.94C16.3904 36.98 17.5304 38.18 19.3184 38.18Z" fill="#333333"/>
</svg>
