<svg width="18" height="19" viewBox="0 0 18 19" fill="none" xmlns="http://www.w3.org/2000/svg">
<path d="M17.5092 7.72189L10.0086 0.902903C9.73305 0.650631 9.37303 0.510717 8.99948 0.510742C8.62592 0.510768 8.26593 0.65073 7.99046 0.90304L0.491098 7.72184C0.336592 7.86254 0.213125 8.03392 0.128584 8.22502C0.0440421 8.41613 0.000282942 8.62276 0.000100622 8.83173V17.4657C-0.00420076 17.8426 0.129535 18.2081 0.3761 18.4933C0.516567 18.653 0.689539 18.7808 0.883424 18.8682C1.07731 18.9555 1.28763 19.0004 1.50029 18.9999H5.9968C6.19572 18.9999 6.38648 18.9209 6.52713 18.7802C6.66779 18.6396 6.7468 18.4488 6.7468 18.2499V13.7492C6.7468 13.5503 6.82582 13.3595 6.96647 13.2189C7.10713 13.0782 7.29789 12.9992 7.4968 12.9992H10.4968C10.6957 12.9992 10.8865 13.0782 11.0271 13.2189C11.1678 13.3595 11.2468 13.5503 11.2468 13.7492V18.2499C11.2468 18.4488 11.3258 18.6396 11.4665 18.7802C11.6071 18.9209 11.7979 18.9999 11.9968 18.9999H16.5022C16.7486 19.0031 16.9918 18.9432 17.2085 18.8259C17.4477 18.6968 17.6476 18.5054 17.7869 18.2719C17.9263 18.0385 17.9999 17.7718 18.0001 17.4999V8.83178C17.9999 8.62282 17.9561 8.41619 17.8716 8.22509C17.7871 8.03399 17.6637 7.86261 17.5092 7.72189Z" fill="#ADADAD"/>
</svg>
