<svg width="24" height="24" viewBox="0 0 24 24" fill="none" xmlns="http://www.w3.org/2000/svg">
<g clip-path="url(#clip0)">
<path d="M20.249 18.7539V20.2539C20.249 20.6517 20.091 21.0333 19.8097 21.3146C19.5284 21.5959 19.1468 21.7539 18.749 21.7539H14.249" stroke="#ADADAD" stroke-width="1.5" stroke-linecap="round" stroke-linejoin="round"/>
<path d="M14.249 3.75391H18.749C19.1468 3.75391 19.5284 3.91194 19.8097 4.19325C20.091 4.47455 20.249 4.85608 20.249 5.25391V6.75391" stroke="#ADADAD" stroke-width="1.5" stroke-linecap="round" stroke-linejoin="round"/>
<path d="M10.393 23.246L1.39302 21.96C1.21437 21.9345 1.0509 21.8455 0.932609 21.7092C0.814318 21.5729 0.749137 21.3985 0.749024 21.218V3.72503C0.748882 3.55328 0.807693 3.38669 0.915627 3.25309C1.02356 3.11949 1.17408 3.02699 1.34202 2.99103L10.342 0.770035C10.4514 0.746617 10.5647 0.747967 10.6735 0.773986C10.7823 0.800005 10.8839 0.850035 10.9708 0.920409C11.0578 0.990784 11.1279 1.07972 11.176 1.18071C11.2242 1.28169 11.2491 1.39216 11.249 1.50403V22.504C11.249 22.6114 11.2258 22.7176 11.1812 22.8153C11.1365 22.913 11.0714 22.9999 10.9903 23.0703C10.9091 23.1406 10.8138 23.1927 10.7107 23.2231C10.6077 23.2534 10.4994 23.2612 10.393 23.246Z" fill="#ADADAD" stroke="#ADADAD" stroke-width="1.5" stroke-linecap="round" stroke-linejoin="round"/>
<path d="M20.249 9.75293L23.249 12.7529H14.999" stroke="#ADADAD" stroke-width="1.5" stroke-linecap="round" stroke-linejoin="round"/>
<path d="M20.25 15.7529L23.25 12.7529" stroke="#ADADAD" stroke-width="1.5" stroke-linecap="round" stroke-linejoin="round"/>
<path d="M7.874 11.629C7.79966 11.629 7.72701 11.6511 7.66525 11.6925C7.6035 11.7339 7.55544 11.7927 7.52718 11.8614C7.49892 11.9302 7.49173 12.0058 7.50653 12.0786C7.52132 12.1515 7.55744 12.2183 7.61028 12.2706C7.66313 12.3229 7.73032 12.3583 7.80333 12.3723C7.87633 12.3863 7.95185 12.3783 8.0203 12.3493C8.08875 12.3203 8.14704 12.2716 8.18776 12.2094C8.22848 12.1472 8.24979 12.0743 8.249 12C8.24913 11.9507 8.23952 11.9019 8.22073 11.8563C8.20193 11.8108 8.17431 11.7694 8.13946 11.7345C8.10461 11.6997 8.06322 11.6721 8.01766 11.6533C7.97211 11.6345 7.92329 11.6249 7.874 11.625" stroke="white" stroke-width="1.5" stroke-linecap="round" stroke-linejoin="round"/>
</g>
<defs>
<clipPath id="clip0">
<rect width="24" height="24" fill="white"/>
</clipPath>
</defs>
</svg>
